<?xml version="1.0" encoding="utf-8"?>
<!DOCTYPE svg PUBLIC "-//W3C//DTD SVG 20010904//EN" "http://www.w3.org/TR/2001/REC-SVG-20010904/DTD/svg10.dtd">
<svg version="1.0" xmlns="http://www.w3.org/2000/svg" width="1500px" height="1500px" viewBox="0 0 1500 1500" preserveAspectRatio="xMidYMid meet">
 <g fill="#221e5a">
  <path d="M123 1385.4 c0 -1.8 6.2 -8.4 7.8 -8.4 0.5 0 1.2 -0.9 1.5 -2 0.3 -1.1 1.2 -2 2 -2 0.9 0 1.8 -0.9 2.2 -1.9 0.3 -1.1 1.5 -2.3 2.6 -2.6 1 -0.4 1.9 -1.3 1.9 -2.1 0 -0.8 0.4 -1.4 0.8 -1.4 1.3 0 7.8 -6.3 8.5 -8.2 0.3 -1 1 -1.8 1.4 -1.8 0.9 0 55.3 -53.8 55.3 -54.7 0 -0.3 1.2 -1.6 2.6 -2.9 2.1 -2.1 2.7 -2.2 3.9 -1 0.8 0.7 3.7 1.6 6.5 2 6 0.8 10 -1.1 14.6 -7.1 2.2 -2.9 2.8 -4.9 3.2 -10.8 l0.4 -7.3 -4.8 -4.9 c-4.3 -4.3 -5.6 -5.1 -9.9 -5.6 -7.7 -0.9 -12.7 0.4 -17.1 4.2 l-3.9 3.5 -0.1 9 0 9.1 -31.3 31.3 c-17.2 17.1 -31.6 31.2 -32.2 31.2 -0.5 0 -0.9 0.5 -0.9 1.1 0 1.3 -15.7 16.9 -17 16.9 -0.6 0 -1 0.6 -1 1.3 0 0.7 -2.2 3.6 -5 6.5 -5.1 5.4 -7.4 6.8 -4.6 3 0.8 -1.3 2.3 -3.8 3.2 -5.5 0.9 -1.8 2 -3.3 2.5 -3.3 0.4 0 1.3 -1.7 1.9 -3.8 0.5 -2.2 1.9 -4.7 3 -5.7 1.1 -1 2 -2.6 2 -3.7 0 -1 0.9 -2.6 2 -3.5 1.1 -1 2 -2.5 2 -3.4 0 -2.2 2.7 -8.6 4 -9.4 0.5 -0.3 1 -1.4 1 -2.3 0 -1 0.9 -3.5 2 -5.7 1.1 -2.2 2 -4.3 2 -4.8 0 -0.4 1.1 -3.2 2.3 -6 2.7 -6 5.4 -13.5 6.8 -19 0.5 -2 1.8 -5.4 2.9 -7.5 1.1 -2 2 -4.7 2 -5.9 0 -1.2 0.8 -4.6 1.9 -7.5 1 -2.9 2.4 -7.9 3.1 -11 0.7 -3.2 1.7 -5.8 2.1 -5.8 0.4 0 1 -2.4 1.4 -5.2 0.4 -2.9 1.3 -6.3 2.1 -7.5 0.7 -1.1 1.6 -3.4 1.8 -4.9 0.3 -1.5 1.2 -3.2 2.1 -3.6 0.8 -0.5 1.5 -1.6 1.5 -2.3 0 -0.9 1 -1.5 2.4 -1.5 1.3 0 2.9 -0.6 3.5 -1.4 0.6 -0.8 2.6 -2 4.4 -2.7 1.8 -0.7 4.3 -2.1 5.6 -3.1 1.3 -1 3.1 -1.8 4 -1.8 0.9 0 2.4 -0.9 3.4 -2 0.9 -1.1 2.3 -2 3.1 -2 0.9 0 3 -1 4.8 -2.2 1.9 -1.3 5.6 -3.4 8.3 -4.8 2.8 -1.4 5.2 -2.8 5.5 -3.1 1.2 -1.3 12.6 -7.9 13.8 -7.9 0.6 0 1.2 -0.4 1.2 -0.9 0 -0.4 2.8 -2.5 6.3 -4.6 3.4 -2.2 9.3 -6.4 13.1 -9.4 3.7 -3.1 7.6 -6.1 8.5 -6.6 1.8 -1.2 9.4 -7.9 12.7 -11.2 1.2 -1.3 2.6 -2.3 3.1 -2.3 0.5 0 1.5 -1.1 2.1 -2.5 0.6 -1.4 1.5 -2.4 1.9 -2.3 0.9 0.3 10.9 -9.6 11.7 -11.5 0.3 -0.7 1.7 0.2 3.5 2.3 1.6 1.9 3.4 3.8 3.8 4.2 0.4 0.4 11.5 11.3 24.7 24.2 l23.8 23.4 -2.3 3.1 c-1.2 1.7 -2.9 3.1 -3.6 3.1 -0.7 0 -1.3 0.5 -1.3 1.1 0 0.6 -1.7 2.7 -3.8 4.7 -7.3 7.2 -22.3 24.2 -23.4 26.7 -0.6 1.4 -1.5 2.5 -2 2.5 -0.4 0 -0.8 0.7 -0.8 1.5 0 0.8 -0.9 2 -2 2.7 -1.1 0.7 -2 1.9 -2 2.6 0 0.7 -1 2.3 -2.2 3.5 -1.3 1.3 -2.9 3.4 -3.6 4.7 -2.9 5.6 -4.1 7.2 -6.1 8.6 -1.1 0.8 -2.1 2.6 -2.1 3.8 0 1.3 -0.7 2.9 -1.6 3.7 -0.9 0.7 -2.3 3 -3.1 5.1 -0.8 2.1 -1.9 3.8 -2.3 3.8 -0.5 0 -1.1 0.8 -1.5 1.9 -0.3 1 -1.4 2.9 -2.5 4.1 -1.1 1.3 -2 3.4 -2 4.7 0 1.3 -0.8 2.6 -1.7 3 -2.4 0.9 -3.3 2.3 -3.3 5.3 0 1.4 -0.9 3.1 -2 3.8 -1.3 0.8 -2 2.3 -2 4.2 0 1.7 -0.8 3.4 -2 4.3 -1.1 0.8 -2.3 2.7 -2.6 4.4 -0.4 1.9 -1.5 3.5 -3 4.2 -1.3 0.6 -2.4 1.5 -2.4 2 0 0.6 -1.7 1.3 -3.7 1.7 -2.1 0.4 -4.6 1.3 -5.5 2.1 -0.9 0.8 -4.4 1.8 -7.7 2.2 -3.2 0.4 -6.7 1.3 -7.6 2.1 -0.9 0.8 -4.4 1.7 -7.7 2.1 -3.3 0.4 -6.4 1.2 -6.7 1.7 -0.9 1.6 -5.8 3.2 -9.3 3.2 -1.6 0 -4.1 0.9 -5.5 2 -1.7 1.3 -4.1 2 -6.9 2 -2.6 0 -4.6 0.5 -5.1 1.4 -1.2 2 -4.8 3.6 -8 3.6 -1.6 0 -3.6 0.9 -4.6 2 -1.1 1.3 -2.9 2 -5.2 2 -2.2 0 -3.8 0.6 -4.1 1.4 -0.3 0.8 -2.8 2 -5.6 2.6 -2.8 0.7 -5.9 2.1 -6.9 3.1 -1.1 1.1 -3 1.9 -4.2 1.9 -1.3 0 -3.4 0.9 -4.7 2 -1.3 1.1 -3.2 2 -4.3 2 -1.1 0 -3 1.1 -4.3 2.5 -1.3 1.4 -3.4 2.5 -4.8 2.5 -1.4 0 -2.9 0.6 -3.3 1.4 -0.4 0.7 -1.8 1.8 -3 2.5 -2 1 -2.3 0.9 -2.3 -0.5z"/>
  <path d="M357 1199.9 c0 -0.9 -7.7 -9.4 -13.3 -14.7 -1 -0.9 -3.8 -3.6 -6.2 -5.9 -2.5 -2.4 -4.8 -4.3 -5.2 -4.3 -0.5 0 -2.1 -1.7 -3.8 -3.7 -1.6 -2 -9 -9.6 -16.2 -17 -7.3 -7.3 -13.3 -13.5 -13.3 -13.8 0 -0.3 1.3 -1.7 2.8 -3.2 3.4 -3.5 9.2 -10.8 9.2 -11.8 0 -0.4 1.9 -2.7 4.3 -5.1 2.3 -2.4 5.6 -5.9 7.2 -7.9 1.7 -2.1 3.8 -4.4 4.8 -5.3 0.9 -0.9 1.7 -2.2 1.7 -2.9 0 -0.7 1.1 -2 2.5 -2.9 1.4 -0.9 2.3 -2 2 -2.4 -0.2 -0.4 0.6 -1.6 1.8 -2.7 2.1 -2 7.4 -7.9 13.6 -15.3 l3 -3.4 14.5 14.6 c8 8.1 14.6 15.2 14.6 15.7 0 0.5 0.8 1.2 1.8 1.5 1 0.4 3.2 2.4 4.8 4.6 1.6 2.2 3.4 4 4 4 0.6 0 6.2 5.5 12.5 12.2 6.3 6.7 12.9 13.7 14.8 15.4 2.1 2 2.9 3.4 2.2 3.8 -0.6 0.4 -1.1 0.5 -1.1 0.3 0 -0.3 -2 1.4 -4.4 3.7 -2.4 2.2 -5.5 5 -7 6.1 -1.5 1.1 -4.2 3.2 -6 4.8 -1.9 1.5 -3.9 2.7 -4.5 2.7 -0.6 0 -1.1 0.7 -1.1 1.5 0 0.8 -0.4 1.5 -1 1.5 -0.5 0 -2 1 -3.2 2.3 -1.3 1.2 -6.3 5.4 -11.3 9.4 -4.9 4 -9.9 8.1 -11 9.1 -3.8 3.4 -12.3 10.2 -12.9 10.2 -0.3 0 -0.6 -0.5 -0.6 -1.1z m44 -68.5 c0 -0.8 -0.7 -1.4 -1.5 -1.4 -1.5 0 -2.1 2.1 -0.9 3.3 1 0.9 2.4 -0.2 2.4 -1.9z m-35 -34.9 c0 -0.8 -0.9 -1.5 -2 -1.5 -1.1 0 -2 0.7 -2 1.5 0 0.8 0.9 1.5 2 1.5 1.1 0 2 -0.7 2 -1.5z"/>
  <path d="M441 1136.2 c-2.6 -0.9 -77 -75.9 -77 -77.6 0 -0.9 0.7 -1.6 1.5 -1.6 0.9 0 1.9 -0.8 2.2 -1.7 0.4 -1 2.9 -4 5.5 -6.7 2.6 -2.7 4.8 -5.5 4.8 -6.2 0 -0.7 0.6 -1.7 1.3 -2.1 0.8 -0.4 1.8 -1.5 2.3 -2.4 0.8 -1.6 9.4 -11.1 24.4 -27.3 17.1 -18.3 117.6 -122.2 134 -138.4 10.2 -10.1 20.6 -20.5 23.2 -23 2.5 -2.6 5.1 -5.1 5.7 -5.7 0.6 -0.5 6.5 -6.3 13 -12.7 6.6 -6.5 12.4 -11.8 13 -11.8 0.6 0 1.1 -0.6 1.2 -1.2 0 -0.7 1.5 -2.6 3.2 -4.1 1.8 -1.5 8.7 -8.2 15.5 -14.7 12.4 -12.2 14.6 -13.5 19 -11.1 0.9 0.5 7.8 1.6 15.2 2.6 7.4 0.9 15.1 2.1 17.1 2.6 5.8 1.5 56.3 5.7 93.9 7.9 9.6 0.6 18.3 1.3 19.3 1.6 1.2 0.4 1.7 1.6 1.7 4.1 0 3.9 0.1 3.7 -17.7 22.6 -7.5 8 -8.4 8.6 -10.3 7.5 -2.4 -1.5 1.6 -5.4 -43.5 42.7 -18.1 19.3 -36.5 38.8 -40.9 43.5 -9.7 10.3 -90.2 90.7 -114.6 114.6 -28.1 27.4 -100.8 92.6 -108.8 97.5 -1.5 0.9 -3.4 1.4 -4.2 1.1z"/>
  <path d="M798.5 770.5 c-0.5 -0.2 -13.1 -1.1 -28 -2 -32 -1.9 -43.7 -2.8 -60.5 -5.1 -6.9 -0.9 -15.5 -1.9 -19.2 -2.1 -3.8 -0.3 -6.8 -0.8 -6.8 -1.2 0 -0.4 -4.4 -1.3 -9.7 -2.1 -12.2 -1.6 -13.3 -2.1 -13.3 -6.4 0 -2.6 0.8 -4 3.4 -6.3 1.9 -1.5 26.8 -24.1 55.5 -50 28.6 -26 52.5 -47.3 53 -47.3 0.5 0 1.1 0.6 1.3 1.2 0.8 2.3 4.2 -0.3 22 -16.6 9.5 -8.7 21.3 -19.5 26.2 -24 4.9 -4.5 9.7 -8.8 10.5 -9.6 2.5 -2.4 22.1 -20.3 27 -24.6 2.4 -2.2 5.8 -5.2 7.6 -6.9 1.7 -1.6 4.8 -4.5 6.8 -6.2 2 -1.8 7.4 -6.8 12 -11 4.6 -4.3 11.5 -10.5 15.2 -13.8 3.8 -3.3 10 -9.1 13.9 -12.8 3.9 -3.8 8.2 -7.4 9.6 -8 1.3 -0.7 2.9 -2.1 3.5 -3.3 0.8 -1.7 7.1 -7.9 15.6 -15.4 0.9 -0.8 4 -3.5 6.7 -6 14.8 -13.3 21.2 -19.2 27.6 -25.3 3.9 -3.7 8.9 -8.5 11.1 -10.6 2.2 -2.1 4.8 -4.1 5.8 -4.4 0.9 -0.4 1.7 -1.1 1.7 -1.6 0 -0.5 0.9 -1.3 2 -1.6 1.1 -0.3 2 -1.1 2 -1.7 0 -1.1 3 -4.1 12 -11.8 2.9 -2.5 7.3 -6.6 9.8 -9.2 2.5 -2.7 5.1 -4.8 5.9 -4.8 0.7 0 1.3 -0.5 1.3 -1.1 0 -1.1 10.4 -11.9 11.5 -11.9 0.3 0 2.5 -2 4.8 -4.5 2.4 -2.5 4.9 -4.5 5.5 -4.5 0.6 0 1.6 -0.9 2.2 -2 0.6 -1.1 1.7 -2 2.5 -2 0.8 0 1.5 -0.5 1.5 -1.1 0 -1.2 6.9 -7.9 8.2 -7.9 0.4 0 0.8 -0.7 0.8 -1.5 0 -0.9 0.8 -1.9 1.8 -2.2 0.9 -0.4 4.7 -3.6 8.4 -7.2 13.6 -13.4 20.9 -20.1 21.8 -20.1 0.5 0 1.2 -0.9 1.5 -2 0.3 -1.1 1 -2 1.5 -2 1.1 0 7 -5.9 7 -7 0 -0.5 0.9 -1.2 2 -1.5 1.1 -0.3 2.5 -1.5 3 -2.6 0.6 -1 1.7 -1.9 2.4 -1.9 0.7 0 1.8 -1.1 2.4 -2.5 0.6 -1.4 1.6 -2.5 2.2 -2.5 1 0 4.2 -3.1 9.5 -9.4 1.7 -2 3.6 -3.6 4.3 -3.6 0.6 0 1.2 -0.5 1.2 -1.1 0 -1.4 5.5 -6.9 6.9 -6.9 0.7 0 1.6 -1.1 2.1 -2.5 0.5 -1.4 1.6 -2.5 2.5 -2.5 0.8 0 1.5 -0.7 1.5 -1.5 0 -0.8 0.4 -1.5 1 -1.5 0.5 0 3 -2 5.6 -4.5 4.5 -4.5 8.4 -5.9 8.4 -3 0 0.8 0.7 1.5 1.5 1.5 0.8 0 1.5 0.5 1.5 1.1 0 0.5 2.3 3.2 5 5.8 2.8 2.6 5 5.3 5 6 0 0.6 0.5 1.1 1.1 1.1 1 0 4.5 3.4 23.2 22.7 3.7 3.8 6.7 7.6 6.7 8.4 0 0.8 -3.3 4.6 -7.2 8.5 -4 3.9 -15.2 15.3 -24.8 25.5 -9.6 10.1 -22.4 23.5 -28.5 29.9 -36 37.8 -62.5 65.8 -80 84.5 -8.2 8.8 -20.8 22.3 -28 30 -39.3 41.8 -58.6 62.8 -82 89 -14.2 16 -29 32.4 -32.9 36.5 -3.9 4.2 -10.8 11.8 -15.3 17 -4.5 5.2 -9.9 11.3 -12 13.6 -2.1 2.2 -7.8 8.5 -12.8 14 -4.9 5.4 -9.2 10.1 -9.5 10.4 -0.3 0.3 -7.7 8.3 -16.4 17.8 -14.4 15.8 -15.7 17.5 -14.3 19 1.9 1.9 1.8 2 -15.5 20.5 l-12 12.7 -8.6 -0.1 c-4.8 0 -9.1 -0.2 -9.7 -0.4z"/>
  <path d="M1223 327.4 c0 -0.6 -8.8 -9.9 -19.5 -20.8 -10.7 -10.8 -19.5 -20.1 -19.5 -20.6 0 -0.6 -0.6 -1 -1.3 -1 -1.9 0 -6.9 -6.1 -6.3 -7.7 0.3 -0.7 1.1 -1.3 1.7 -1.3 1.2 0 7.9 -6.9 7.9 -8.2 0 -0.4 0.7 -0.8 1.5 -0.8 0.8 0 1.9 -0.9 2.5 -1.9 0.5 -1.1 1.9 -2.3 3 -2.6 1.2 -0.4 5.1 -3.8 8.8 -7.7 3.7 -3.9 11.4 -11.6 17.1 -17.2 5.7 -5.6 15.6 -15.4 22 -21.9 6.4 -6.5 14.3 -14.4 17.5 -17.5 7.4 -7.1 25.2 -25 28.7 -28.8 6.6 -7.4 22.4 -21.4 24 -21.4 1 0 2.2 -0.7 2.7 -1.5 0.4 -0.9 2.6 -1.8 4.8 -2.2 2.1 -0.3 4.5 -1.5 5.2 -2.5 1.1 -1.6 2.8 -1.8 13.2 -1.8 11 0 11.9 0.1 12.5 2 0.3 1.1 1.5 2 2.5 2 1.1 0 2.5 0.7 3.2 1.6 0.7 0.8 2 2.3 2.9 3.3 4.4 4.9 7 18.8 4.6 24.3 -0.9 1.8 -1.8 5.4 -2.2 8 -1 7.8 -9.4 17.4 -52 59.8 -34.5 34.4 -54.9 55.1 -79.3 81 -3.4 3.6 -6.2 6 -6.2 5.4z"/>
 </g>
 <g fill="#f9ac40">
  <path d="M1338 1384 c-1.4 -0.5 -4.4 -1.4 -6.7 -1.9 -8 -2.1 -20.7 -12.9 -26 -22.2 -4.1 -7.3 -4.8 -19.4 -1.4 -25.8 1.7 -3 1.4 -3.8 -2.5 -7.3 -2 -1.8 -10.2 -10 -18.3 -18.2 -36.8 -37.4 -133.9 -132.9 -168.5 -165.9 -8.2 -7.8 -19.1 -18.2 -24.1 -23.2 -23.3 -22.8 -57 -54.7 -61.7 -58.5 -1.5 -1.1 -4 -3.3 -5.6 -4.8 -1.5 -1.5 -4.3 -4 -6.2 -5.6 -1.9 -1.6 -5.3 -4.5 -7.5 -6.5 -2.2 -2 -6.9 -6.1 -10.4 -9.1 -3.6 -3 -6.9 -5.9 -7.5 -6.5 -0.6 -0.5 -4.7 -3.9 -9.1 -7.5 -4.4 -3.5 -8.2 -6.7 -8.5 -7 -0.3 -0.3 -4.5 -3.9 -9.5 -8 -4.9 -4.1 -9.2 -7.7 -9.5 -8 -0.3 -0.3 -3 -2.3 -6 -4.5 -3 -2.2 -5.7 -4.2 -6 -4.5 -0.3 -0.3 -7 -5.5 -15 -11.5 -8 -5.9 -14.6 -11.2 -14.8 -11.7 -0.2 -0.4 -0.8 -0.8 -1.3 -0.8 -0.6 0 -2.2 -1.1 -3.7 -2.5 -1.5 -1.4 -3.2 -2.5 -3.9 -2.5 -0.7 0 -1.3 -0.4 -1.3 -1 0 -0.5 -1.7 -1.7 -3.7 -2.7 -2.1 -0.9 -4 -2 -4.3 -2.3 -0.3 -0.4 -2.7 -2.4 -5.5 -4.5 -2.7 -2 -5.2 -4 -5.5 -4.4 -0.3 -0.3 -2.3 -2 -4.5 -3.6 -2.2 -1.6 -4.7 -3.5 -5.5 -4.2 -0.8 -0.6 -3.5 -2.8 -6 -4.8 -2.5 -2 -5.2 -4.2 -6 -4.8 -9.1 -7.1 -11.9 -9.4 -14.5 -12.1 -1.6 -1.7 -4.6 -4.3 -6.5 -5.8 -1.9 -1.5 -4.7 -3.7 -6.2 -5 -3.8 -3.3 -6.5 -5.6 -13.3 -11.2 -3.3 -2.8 -6.2 -5.2 -6.5 -5.5 -0.3 -0.4 -2.7 -2.4 -5.5 -4.6 -6.2 -5 -7.8 -6.3 -13.8 -11.4 -4.7 -4 -7.7 -5.2 -7.7 -3.1 0 2.3 -1.7 0.7 -2.9 -2.7 -0.8 -2.1 -2.1 -4.5 -3 -5.3 -1.3 -1.3 -19.4 -16.5 -27.9 -23.6 l-2.5 -2 9.4 -10 c5.1 -5.4 11.1 -11.8 13.3 -14.1 3.9 -4.2 3.9 -4.3 2.1 -5.8 -1.7 -1.3 -1.8 -1.6 -0.5 -2.5 5.1 -3.4 72.5 3.3 104.5 10.4 3.9 0.9 10.2 2.3 14 3.1 3.9 0.8 9.5 2.2 12.5 3.1 3 0.9 6.5 1.8 7.8 2.1 2.4 0.6 2.7 4 0.4 3.5 -0.7 -0.1 -1.2 0.1 -1.2 0.4 0 0.5 4.8 7.2 6 8.4 0.3 0.3 1.8 2.3 3.5 4.5 1.6 2.2 3.1 4.2 3.4 4.5 0.4 0.3 2.4 2.8 4.5 5.5 2.2 2.8 5.2 6.4 6.7 8 2.6 2.7 9.9 11.6 11.7 14 1.2 1.7 12.6 15.9 13.7 17.1 0.5 0.7 1.9 2.4 3 4 1.8 2.6 13.7 17.7 16.9 21.6 0.8 0.9 1.9 2.5 2.5 3.6 0.6 1.1 1.7 2.6 2.4 3.4 0.7 0.7 2.6 3.1 4.2 5.3 1.7 2.2 3.2 4.2 3.5 4.5 0.3 0.3 2.4 2.8 4.5 5.5 2.2 2.8 4.2 5.2 4.5 5.5 0.5 0.5 12.3 14.9 15 18.4 4.2 5.3 19.6 23.1 20.3 23.4 0.4 0.2 0.7 0.8 0.7 1.3 0 0.6 1 2.1 2.3 3.4 1.2 1.3 3.4 3.9 4.8 5.7 1.5 1.8 5.5 6.7 9 10.8 3.5 4.1 8.6 10.2 11.4 13.5 2.7 3.3 5.8 6.9 7 8 1.1 1.2 4.2 4.5 7 7.5 13.8 15.3 28.8 31.1 45.8 48.4 28.5 28.9 69.4 70 89.4 89.7 19.1 18.9 28.1 28.1 49.3 50.8 7.4 7.9 23.9 25 36.6 38 24.8 25.3 29.3 30 36.6 38 4.3 4.7 5.1 5.1 9.2 5.1 5.7 0 24.6 3.6 26 5 0.5 0.5 1.8 1 2.9 1 1 0 3.3 1.1 5.1 2.5 1.8 1.4 3.7 2.5 4.3 2.5 1.4 0 9.3 10.9 9.3 12.9 0 0.9 0.5 2.2 1.1 2.8 1.4 1.4 1.6 20.5 0.2 23.6 -3.5 8 -6.8 13.8 -10 17.8 -4.7 5.7 -13.4 11.9 -16.7 11.9 -1.4 0 -2.6 0.5 -2.6 1 0 1.2 -27.3 1.2 -31 0z"/>
  <path d="M858.5 773.5 c-0.5 -0.2 -11.2 -0.9 -23.7 -1.6 -12.6 -0.7 -22.8 -1.5 -22.8 -1.9 0 -0.3 3.7 -4.4 8.3 -9.1 4.6 -4.6 11.6 -12 15.6 -16.4 8.2 -9 6.6 -9 13.3 -0.4 1.4 1.9 7.3 9.4 13.1 16.7 l10.6 13.2 -6.7 -0.1 c-3.7 0 -7.1 -0.2 -7.7 -0.4z"/>
  <path d="M657.5 754.3 c-8.5 -2 -9.6 -2.4 -8.6 -3.7 0.9 -1.1 -0.3 -2.7 -5.5 -7.2 -3.6 -3.2 -7.5 -6.5 -8.7 -7.3 -1.2 -0.8 -2.4 -1.8 -2.7 -2.1 -0.3 -0.4 -3.4 -3.1 -7 -6.1 -3.6 -2.9 -6.7 -5.5 -7 -5.8 -0.3 -0.4 -5.1 -4.5 -10.6 -9.3 -5.6 -4.8 -10.8 -9.3 -11.5 -10 -0.8 -0.7 -4.3 -3.8 -7.9 -6.8 -3.6 -3 -8.4 -7.2 -10.7 -9.4 -2.3 -2.1 -5.1 -4.5 -6.2 -5.2 -1.1 -0.8 -3.3 -2.7 -4.8 -4.2 -1.6 -1.5 -5.1 -4.5 -7.8 -6.7 -4.7 -3.9 -13.5 -11.4 -14.5 -12.5 -0.3 -0.3 -2.7 -2.4 -5.5 -4.5 -2.7 -2.2 -5.2 -4.2 -5.5 -4.5 -0.8 -0.9 -14.3 -12.6 -16.8 -14.6 -1.3 -1 -3.4 -2.8 -4.7 -3.9 -1.3 -1.1 -4.4 -3.8 -7 -6 -2.6 -2.2 -5.7 -4.9 -6.8 -6 -1.2 -1.1 -5.1 -4.5 -8.7 -7.5 -3.6 -3 -7.2 -6.2 -8 -7 -0.8 -0.8 -4.4 -4 -8 -7 -3.6 -3 -7 -5.9 -7.6 -6.5 -0.6 -0.5 -3.5 -3.1 -6.5 -5.7 -3 -2.5 -6.4 -5.5 -7.7 -6.6 -1.3 -1.1 -4.2 -3.5 -6.5 -5.4 -3.8 -3 -11.5 -9.6 -12.7 -10.8 -0.3 -0.3 -3.4 -3 -7 -6 -3.6 -3 -6.7 -5.7 -7 -6 -0.3 -0.3 -7.9 -7 -17 -15 -16.2 -14.2 -19.4 -17 -26.9 -24 -4.6 -4.2 -6.4 -5.9 -26.1 -23 -8.5 -7.5 -18.4 -16 -22 -19 -3.6 -3 -7.2 -6.2 -8 -7 -0.8 -0.8 -7.1 -6.4 -14 -12.4 -6.9 -6 -13.5 -11.9 -14.6 -13 -1.2 -1.2 -4.5 -4.1 -7.4 -6.6 -2.9 -2.5 -6.4 -5.6 -8 -7 -1.5 -1.4 -6 -5.4 -10 -9 -4 -3.6 -9 -8.2 -11.1 -10.2 -2.2 -2 -5.2 -4.7 -6.7 -5.8 -1.5 -1.2 -5 -4.3 -7.7 -6.8 -2.8 -2.6 -7.5 -6.9 -10.5 -9.7 -31.9 -29 -41.1 -37.7 -71 -67.5 -11.9 -11.8 -24.4 -24.6 -27.7 -28.5 -3.3 -3.8 -7.7 -8.8 -9.7 -11 -9.1 -10 -16.5 -21.1 -19.8 -29.5 -1.6 -4.2 -1.4 -24.8 0.3 -32.5 3.6 -16.5 13.4 -34.5 26.2 -48.2 2.2 -2.3 5.1 -5.7 6.6 -7.4 4.2 -5.1 5.3 -6.1 12.1 -11.9 3.6 -3 7.2 -6.2 8 -7 4 -4 21.9 -14 25.1 -14 1.1 0 2.7 -0.4 3.7 -0.9 9.4 -4.8 28.8 -7.4 54.7 -7.5 17 -0.1 21.4 0.2 29.5 2 9.2 2.1 14.7 3.8 18.2 5.5 1 0.5 2.7 0.9 3.8 0.9 1.1 0 2 0.4 2 0.8 0 0.5 2.4 1.9 5.2 3.1 12.9 5.6 24.7 14.9 46.3 36.6 19 19.1 38.9 39.9 52.1 54.5 2.7 3 5.6 6.2 6.4 7 0.8 0.8 4.4 4.9 8 9 6.1 7.1 11.4 12.9 20.5 22.6 3.8 4 15.2 16.6 18.5 20.4 0.8 0.9 4 4.6 7 8 3 3.5 6.4 7.3 7.5 8.4 1.9 1.9 15.9 18 28.9 33 2.8 3.3 7.1 8.2 9.6 10.9 2.5 2.8 5.5 6.2 6.8 7.6 1.2 1.4 3.3 3.7 4.5 5.1 1.3 1.4 5.2 5.9 8.8 10 7.3 8.5 11.9 13.7 20.4 23 11.4 12.4 20.3 22.5 22.6 25.5 1.3 1.7 2.8 3.5 3.4 4 0.6 0.6 3.8 4.1 7.1 8 3.2 3.8 7 8.2 8.4 9.6 1.4 1.5 3.9 4.3 5.5 6.3 4.1 5 12.5 14.2 33 36.5 10.8 11.7 13.5 13.9 13.5 11.1 0 -0.5 0.5 -1 1.1 -1 1.2 0 0.7 12.9 -0.8 22.2 l-0.5 3.7 4.3 -1.6 c2.4 -0.9 5.3 -2.5 6.5 -3.5 2.5 -2.2 6.9 -2.5 6.1 -0.3 -0.4 0.8 0.8 3.1 2.6 5.2 5.3 6.3 8.1 9.5 10.2 11.7 1.1 1.2 4.5 5 7.5 8.6 3 3.6 5.7 6.7 6 7 0.3 0.3 5.9 6.6 12.5 14 6.6 7.4 12.2 13.7 12.5 14 0.3 0.3 3.9 4.3 8 9 4.1 4.7 7.7 8.7 8 9 0.7 0.6 13.7 15.6 16.5 19 1.1 1.3 3.2 3.7 4.8 5.3 1.5 1.6 2.7 3.1 2.7 3.3 0 0.3 1.4 1.8 3 3.4 1.7 1.6 3 3.2 3 3.6 0 0.4 1.2 1.9 2.8 3.4 1.5 1.5 3.4 3.6 4.2 4.6 2.6 3.3 10.5 12.9 11.5 14 0.5 0.6 2.4 2.8 4 4.9 1.7 2.1 3.5 4.3 4.1 4.8 0.7 0.8 -13.4 14.1 -47 44.6 -66.1 59.7 -64.2 57.9 -62.2 58.7 4.6 1.8 -1.7 3.1 -7.9 1.7z"/>
 </g>
 <g fill="#bfc0bf">
  <path d="M917 1159.5 c0 -0.7 -4 -1.1 -10.7 -1.2 -11.5 -0.2 -14.9 -0.5 -20 -2.1 -1.8 -0.6 -3.3 -0.8 -3.3 -0.5 0 0.3 -0.6 0 -1.3 -0.6 -0.8 -0.6 -1.7 -0.8 -2 -0.4 -0.4 0.3 -1.6 -0.2 -2.7 -1.2 -1.1 -1 -2.3 -1.5 -2.6 -1.2 -0.4 0.3 -1.6 0 -2.6 -0.8 -1.1 -0.7 -2.6 -1.1 -3.3 -0.9 -0.6 0.3 -1.7 -0.2 -2.4 -1 -0.7 -0.8 -1.8 -1.3 -2.6 -1 -0.7 0.3 -2 -0.5 -2.9 -1.7 -0.8 -1.3 -1.9 -2 -2.2 -1.6 -0.4 0.4 -2.2 -0.7 -4.1 -2.3 -1.9 -1.7 -3.8 -2.8 -4.4 -2.5 -0.5 0.4 -2.7 -1.2 -4.8 -3.4 -2.2 -2.3 -4.6 -4.1 -5.4 -4.1 -2 0 -14.3 -13.4 -25.2 -27.4 -1.6 -2.2 -3.9 -5.1 -5.1 -6.5 -1.2 -1.4 -2.9 -4.2 -3.9 -6.1 -0.9 -1.9 -2.6 -4.4 -3.6 -5.5 -1 -1.1 -2.9 -4.1 -4.2 -6.6 -1.3 -2.4 -2.9 -5.4 -3.5 -6.4 -0.6 -1.1 -2.1 -4.2 -3.3 -7 -1.2 -2.7 -3.6 -8.1 -5.4 -12 -7.6 -16.3 -9.5 -21.1 -9.5 -24.1 0 -1.3 -0.4 -2.4 -1 -2.4 -0.5 0 -1 -0.8 -1 -1.8 0 -0.9 -0.9 -4.2 -2.1 -7.2 -3 -8.1 -6.5 -19.6 -8.3 -27 -2.4 -10.3 -3.7 -15.3 -4.6 -17.5 -0.4 -1.1 -1.4 -6 -2.3 -11 -0.9 -4.9 -2.3 -12.4 -3.2 -16.5 -0.9 -4.1 -2.1 -10.9 -2.5 -15 -0.5 -4.1 -1.4 -10 -2 -13 -1.6 -7.9 -2.9 -25.2 -2 -27.5 0.9 -2.3 4.7 -6.4 11.6 -12.1 2.7 -2.3 6.3 -5.4 7.9 -6.8 1.7 -1.4 3.5 -2.4 4.2 -2.2 1.1 0.5 4.8 -1.9 8.2 -5.2 0.7 -0.7 2 -1.1 2.8 -0.8 0.8 0.4 1.7 -0.4 2.3 -1.9 2.1 -5.4 5.3 -1.1 4.4 5.8 -0.4 2.8 -0.2 4.7 0.5 5.1 0.7 0.4 1.1 4 1.1 9.1 0 4.6 0.4 9.4 1 10.7 0.5 1.3 1.5 7.3 2.1 13.3 0.6 6.1 1.3 12.8 1.6 15 0.2 2.2 0.8 4.9 1.3 6 0.9 2.1 1.1 3.3 3.4 17.5 0.8 4.7 1.9 10.5 2.6 13 0.6 2.5 1.4 5.6 1.7 7 0.3 1.4 0.9 3 1.3 3.5 0.4 0.6 1.1 3.2 1.4 5.8 0.8 5.5 4.2 17.1 7.9 26.7 1.3 3.6 2.2 7.1 1.9 7.9 -0.3 0.8 0 1.1 0.7 0.7 0.7 -0.5 1.1 0.1 1.1 1.5 0 1.3 0.9 4.3 2.1 6.8 3.7 8.2 7.8 16.5 10.7 21.6 1.6 2.8 3.3 5.9 3.9 7 3.8 7.3 4.8 9 5.9 10.4 0.7 0.9 4.1 5.2 7.6 9.6 7.5 9.3 22.1 24.5 23.6 24.5 0.6 0 2.8 1.4 4.8 3.2 2 1.8 4.3 3.3 5.1 3.4 0.8 0.2 2.4 1 3.4 2 1.1 1 2.8 1.9 3.7 2 0.9 0.2 1.8 0.8 2 1.3 0.2 0.6 1 1.1 1.8 1.1 0.8 0 1.4 0.5 1.4 1.1 0 0.5 0.4 0.8 0.9 0.5 0.5 -0.3 1.4 0.1 2.1 1 0.7 0.8 2 1.2 2.7 0.9 0.8 -0.3 2.1 0.2 2.9 1 0.8 0.8 2.1 1.2 2.8 0.9 0.8 -0.3 1.7 0 2.1 0.5 0.3 0.6 1.1 0.9 1.6 0.5 0.6 -0.3 1.8 0.1 2.8 1 1 0.9 2.2 1.6 2.7 1.5 0.5 -0.1 1.1 0 1.4 0.1 0.3 0.1 1.9 0.3 3.5 0.4 1.7 0.1 3.6 0.5 4.2 0.9 1.1 0.7 8.1 0.9 22.8 0.6 1 0 2.5 -0.5 3.2 -1 0.6 -0.6 1.7 -0.8 2.3 -0.4 0.6 0.4 1.7 0.1 2.5 -0.5 0.8 -0.6 1.9 -0.9 2.5 -0.5 0.5 0.3 1.7 -0.1 2.5 -0.9 0.9 -0.8 2.2 -1.3 3.1 -0.9 0.8 0.3 2.3 -0.2 3.3 -1.1 1.1 -1 2.5 -1.6 3.3 -1.4 0.7 0.1 2.6 -0.6 4.2 -1.7 1.6 -1 3.7 -2 4.7 -2 1.1 -0.1 3 -1.1 4.2 -2.3 1.3 -1.2 3.1 -2.2 4.1 -2.2 1 0 4.1 -1.8 6.8 -4 2.8 -2.2 5.8 -4 6.7 -4 1.5 0 15.5 -11.5 25.8 -21.1 l4.2 -3.9 6.2 5.8 c3.4 3.1 8.1 7.4 10.3 9.5 l4.1 3.8 -8 7.7 c-8 7.6 -17.5 16.3 -21.1 19.2 -1.1 0.8 -5.8 4.8 -10.5 8.8 -4.8 3.9 -9.1 7.2 -9.6 7.2 -0.6 0 -3.7 1.8 -6.9 4 -3.3 2.2 -6.5 4 -7.3 4 -0.8 0 -2.5 1 -3.7 2.1 -1.3 1.2 -3.4 2.3 -4.8 2.4 -1.4 0.2 -3.7 1.3 -5.2 2.4 -1.4 1.1 -3 1.8 -3.5 1.5 -0.5 -0.3 -2 0.4 -3.4 1.4 -1.4 1.1 -3.4 1.8 -4.4 1.5 -1 -0.3 -2.2 0 -2.5 0.6 -0.4 0.6 -1.7 1.1 -2.9 1.1 -1.2 0 -3.1 0.7 -4.1 1.5 -1 0.8 -2.3 1.2 -2.7 0.9 -0.5 -0.3 -1.5 -0.2 -2.1 0.3 -0.7 0.4 -2.2 0.9 -3.3 1 -4.2 0.5 -6.1 0.9 -7.3 1.7 -0.7 0.4 -2.1 0.4 -3.2 0.1 -1.1 -0.4 -2 -0.2 -2 0.4 0 0.6 -1.7 0.9 -4 0.7 -2.2 -0.2 -4.8 0.3 -5.9 1 -1.5 1.1 -2 1.1 -2.4 0.1 -0.4 -0.9 -0.8 -0.8 -1.6 0.3 -0.6 0.8 -1.1 1 -1.1 0.5z"/>
  <path d="M1079.4 1023.1 c-3.9 -4.2 -9.2 -10.2 -11.7 -13.3 l-4.6 -5.7 0.9 -8.3 c0.7 -5.4 0.6 -13 0 -21.8 -1.4 -18.4 -2.7 -24.2 -8.4 -37.3 -0.9 -2.1 -1.6 -4.7 -1.6 -5.8 0 -1.1 -0.9 -2.9 -2 -4.1 -1.1 -1.2 -2 -2.9 -2 -3.9 0 -0.9 -1.7 -4.1 -3.7 -7 -2 -3 -4.7 -7.1 -5.9 -9.2 -2.8 -4.9 -26.1 -30.7 -27.7 -30.7 -0.7 0 -3.6 -2.2 -6.5 -5 -2.9 -2.7 -5.8 -5 -6.5 -5 -0.7 0 -2.8 -1.6 -4.7 -3.5 -1.8 -1.9 -3.7 -3.2 -4.1 -3 -0.4 0.3 -1.3 -0.1 -2.1 -0.8 -3.4 -3.5 -22.9 -14.3 -34.8 -19.4 -1.9 -0.8 -4.3 -1.9 -5.2 -2.4 -1 -0.5 -2.5 -0.9 -3.3 -0.9 -0.8 0 -1.5 -0.4 -1.5 -1 0 -0.5 -1.1 -1 -2.5 -1 -1.4 0 -2.8 -0.7 -3.2 -1.6 -0.3 -0.8 -1.2 -1.3 -2.1 -0.9 -0.8 0.3 -2.3 -0.2 -3.3 -1.1 -1.2 -1.1 -1.9 -1.3 -1.9 -0.5 0 0.8 -0.8 0.6 -2.5 -0.5 -1.3 -0.8 -2.9 -1.3 -3.5 -0.9 -0.5 0.3 -1 0.1 -1 -0.4 0 -0.6 -0.8 -1.1 -1.9 -1.1 -1 0 -2.4 -0.7 -3.1 -1.5 -0.8 -1 -1.7 -1.2 -2.2 -0.7 -0.8 0.8 -3.8 0.4 -9.3 -1.2 -6.4 -1.8 -11 -3 -16.5 -4.2 -3.6 -0.8 -9.9 -2.1 -14 -3 -4.1 -0.9 -8.6 -1.8 -10 -2 -1.4 -0.1 -4.1 -0.6 -6 -0.9 -3.4 -0.7 -4.8 -0.9 -12 -1.9 -2 -0.2 -4.7 -0.7 -6 -1 -9.8 -2.3 -52.7 -5.7 -66.2 -5.3 -6 0.2 -10.8 0.1 -10.8 -0.3 0 -0.3 -2.6 -0.6 -5.7 -0.7 -3.2 0 -10.1 -0.3 -15.3 -0.7 -5.2 -0.4 -12.2 -0.9 -15.5 -1.1 -7.9 -0.5 -19.8 -1.5 -26 -2.1 -2.7 -0.2 -7.2 -0.6 -10 -0.8 -7.9 -0.6 -26.7 -2.6 -29.5 -3.2 -4.6 -0.9 -9.5 -1.5 -13 -1.6 -1.9 0 -4.1 -0.5 -4.7 -1.1 -0.7 -0.5 -1.3 -0.7 -1.3 -0.5 0 0.4 -12.2 -1.6 -16 -2.6 -0.8 -0.3 -2.1 -0.5 -2.8 -0.5 -0.9 -0.1 -1.1 -0.8 -0.6 -2.3 0.6 -2 0.5 -2.1 -0.9 -1 -0.9 0.8 -1.6 0.9 -1.9 0.3 -0.1 -0.6 -2.1 -1.3 -4.3 -1.6 -2.2 -0.4 -4.7 -0.7 -5.5 -0.9 -0.9 -0.1 -2.1 -0.5 -2.8 -1 -0.6 -0.4 -1.6 -0.5 -2.1 -0.1 -0.5 0.3 -1.2 0.1 -1.6 -0.5 -0.4 -0.6 -1.1 -0.8 -1.6 -0.4 -0.5 0.3 -1.6 0.1 -2.3 -0.5 -0.7 -0.6 -2.6 -1.3 -4.2 -1.5 -3.2 -0.4 -6 -1.3 -8.7 -2.7 -1 -0.5 -2.2 -0.7 -2.6 -0.4 -0.5 0.2 -1.4 -0.2 -2.1 -1 -0.7 -0.9 -2.1 -1.3 -3.1 -1 -1.1 0.4 -1.9 0.2 -1.9 -0.4 0 -0.6 -1.1 -1.1 -2.5 -1.1 -1.4 0 -2.5 -0.5 -2.5 -1.1 0 -0.6 -0.7 -0.9 -1.5 -0.5 -0.8 0.3 -2.1 -0.1 -2.9 -0.9 -0.8 -0.8 -2.4 -1.5 -3.5 -1.5 -1.1 0 -2.3 -0.5 -2.6 -1.1 -0.4 -0.6 -1.3 -0.8 -2 -0.5 -0.7 0.2 -2.1 -0.4 -3.1 -1.5 -0.9 -1 -1.9 -1.7 -2.2 -1.4 -0.3 0.3 -2 -0.5 -3.9 -1.6 -1.8 -1.1 -3.3 -1.8 -3.3 -1.4 0 0.3 -0.9 -0.3 -2.1 -1.4 -1.2 -1.1 -2.7 -1.7 -3.3 -1.5 -0.7 0.3 -2.2 -0.6 -3.5 -2 -1.3 -1.3 -2.8 -2.2 -3.5 -2 -0.7 0.3 -2.2 -0.6 -3.5 -2 -1.3 -1.3 -2.9 -2.2 -3.5 -2 -0.7 0.3 -2.1 -0.7 -3.2 -2.1 -1 -1.4 -2.6 -2.5 -3.6 -2.5 -0.9 0 -2.8 -1.1 -4.1 -2.4 -1.3 -1.3 -3.7 -3.1 -5.3 -3.9 -1.6 -0.9 -4.7 -3.4 -6.8 -5.6 -2.2 -2.2 -4.4 -3.7 -4.9 -3.4 -0.5 0.3 -4.8 -3.3 -9.6 -8 -4.7 -4.7 -11.1 -11 -14.1 -13.9 -3.1 -2.9 -6.9 -7.1 -8.5 -9.3 -1.6 -2.2 -3.2 -4.2 -3.5 -4.5 -0.4 -0.3 -3.7 -4.8 -7.3 -10.1 -3.7 -5.3 -7.4 -10.2 -8.3 -10.9 -0.8 -0.8 -2.5 -3.2 -3.6 -5.4 -1.2 -2.3 -3.1 -5.5 -4.4 -7.2 -1.3 -1.7 -2.4 -4 -2.4 -5 0 -1.1 -0.4 -2.4 -0.9 -2.9 -1.2 -1.2 -12.3 -23.8 -13.8 -28 -0.6 -1.6 -1.5 -3.9 -1.9 -5 -0.4 -1.1 -0.8 -2.7 -0.9 -3.5 -0.1 -0.8 -1 -3.7 -1.9 -6.3 -0.9 -2.6 -1.6 -5.6 -1.6 -6.7 0 -1 -0.4 -2.2 -1 -2.5 -0.5 -0.3 -1 -1.7 -1 -3.1 0 -1.3 -0.4 -3.2 -0.9 -4.2 -1.2 -2.1 -3.8 -22.7 -4.6 -35.1 -0.6 -10.6 -1.1 -10.4 7.5 -2.6 2.5 2.2 6.7 5.8 9.4 8 5.8 4.8 4.4 3.6 25.4 21.8 17.9 15.5 16.9 14.2 23.9 29.5 0.9 1.7 1.9 3.2 2.3 3.2 0.4 0 1.1 1.1 1.4 2.4 0.3 1.3 2.3 4.6 4.3 7.3 2.1 2.6 4.6 6.4 5.6 8.4 1 2 3.4 5.4 5.4 7.5 1.9 2.1 4.8 5.9 6.4 8.4 4.3 6.5 29.7 34 33.2 35.9 1.6 0.9 5.2 3.9 7.9 6.8 2.8 2.9 5.5 5 6 4.7 0.5 -0.3 2.7 1.2 4.8 3.3 2.2 2.1 4.6 3.8 5.2 3.8 0.7 0 2.6 1.5 4.2 3.3 1.6 1.7 3.5 3.2 4.3 3.2 0.8 0 2.9 1.1 4.5 2.5 1.6 1.4 3.3 2.3 3.7 2 0.5 -0.2 2 0.9 3.6 2.5 1.5 1.5 3.3 2.6 3.9 2.4 0.7 -0.3 2.1 0.4 3.1 1.6 1 1.1 2.6 2 3.5 2 1 0 2.3 0.7 3 1.5 0.7 0.8 2 1.5 3 1.5 0.9 0 2.5 0.9 3.5 2 1 1.2 2.4 1.9 3.1 1.6 0.7 -0.3 1.8 0.2 2.5 1 0.7 0.8 1.8 1.3 2.5 1 0.7 -0.2 2 0.4 2.9 1.4 0.9 1 2.3 1.6 3 1.4 0.7 -0.3 2 0.2 2.9 1.1 0.9 0.9 2 1.4 2.5 1.1 0.5 -0.3 1.4 0.1 2.1 1 0.7 0.8 1.9 1.3 2.6 1 0.7 -0.3 1.8 0.2 2.5 1 0.7 0.8 1.8 1.3 2.5 1 0.7 -0.3 1.6 -0.1 1.9 0.4 0.4 0.6 1.7 1 3.1 1 1.3 0 2.4 0.4 2.4 0.8 0 0.4 2.1 1.4 4.6 2.1 3.4 1 5.1 1.1 6.7 0.2 1.7 -0.9 3.8 -0.7 9.7 0.9 4.1 1.2 8.9 2.2 10.5 2.3 1.7 0.2 3.5 0.6 4 0.9 0.6 0.4 3.9 1 7.3 1.4 3.4 0.3 6.2 0.9 6.2 1.3 0 0.3 2.5 0.7 5.7 0.9 3.1 0.1 7.2 0.6 9.2 1.2 2 0.5 7 1.2 11.1 1.5 4.1 0.3 9.3 0.8 11.5 1.1 2.2 0.2 7.2 0.6 11 0.8 3.9 0.2 7 0.5 7 0.6 0 0.5 25.8 2.2 37.7 2.3 5.4 0.1 9.8 0.4 9.8 0.7 0 0.3 2.4 0.5 5.3 0.4 2.8 0 5.6 0.2 6.2 0.5 1.5 0.8 12.6 0.8 13.1 0 0.2 -0.5 1.5 -0.4 2.7 0 1.3 0.5 7.4 1.2 13.7 1.6 33.9 1.9 37.9 2.4 42.7 4.7 2.3 1.1 4.8 1.6 5.4 1.2 0.6 -0.3 1.5 0 2 0.7 0.8 1.2 1 1.2 1.8 0 0.6 -1 1 -1 1.3 -0.1 0.2 0.8 3.3 1.2 9.1 1.4 4.8 0 8.7 0.5 8.7 1 0 0.4 0.6 0.6 1.4 0.3 0.8 -0.3 1.7 -0.3 2 0.1 0.6 0.6 2.3 0.8 8.6 1.3 1.9 0.1 4 0.5 4.5 0.8 1.4 0.8 3.3 1.1 8.7 1.3 2.7 0.2 4.8 0.6 4.8 0.9 0 0.3 1.3 0.6 2.9 0.7 1.7 0 3.9 0.6 5.1 1.2 1.1 0.6 2.5 0.8 3 0.5 0.5 -0.3 1.2 -0.1 1.5 0.5 0.5 0.8 1.1 0.7 2.1 -0.1 1 -0.8 1.4 -0.8 1.4 0 0 0.6 1.1 1.1 2.4 1.1 1.4 0 2.7 0.4 3.1 1 0.3 0.5 1.2 0.7 2 0.3 0.8 -0.3 1.5 0 1.5 0.6 0 0.6 0.7 0.8 1.5 0.5 0.8 -0.4 2.1 -0.1 2.9 0.5 0.7 0.6 2.6 1.3 4.2 1.5 2.7 0.3 3.8 0.6 8.2 2.3 0.9 0.3 2.1 0.5 2.6 0.4 0.5 -0.1 1.6 0.5 2.6 1.4 0.9 0.8 2.5 1.3 3.4 0.9 0.9 -0.3 1.6 -0.1 1.6 0.5 0 0.6 1.1 1.1 2.4 1.1 1.4 0 2.8 0.5 3.1 1 0.3 0.6 1.5 1 2.6 1 1 0 1.9 0.5 1.9 1 0 0.6 0.6 1 1.4 1 2.5 0 19.1 7.6 21.4 9.8 0.8 0.7 1.8 1 2.3 0.7 0.5 -0.4 0.9 -0.1 0.9 0.4 0 0.6 0.4 1.1 1 1.1 0.9 0 7.2 3.9 9.7 6 0.7 0.5 1.5 1 1.8 1 0.3 0 1.1 0.4 1.8 1 0.7 0.5 5.4 4.3 10.4 8.4 5.1 4 13.2 11.5 18 16.6 8.5 8.9 22.3 27.7 22.3 30.3 0 0.7 1.4 3.4 3 6 1.7 2.6 3 5.3 3 6 0 0.7 0.9 2.3 2 3.7 1.1 1.4 2 3.1 2 3.8 0 0.8 0.6 2.6 1.4 4 2.2 4.1 2.7 5.9 5.4 17.7 2.3 9.9 2.6 13.3 2.6 33 0.1 20.5 -1 33.6 -3.3 40.5 -0.5 1.4 -1.4 4.5 -2.1 7 -0.7 2.5 -1.6 5.4 -2 6.5 -0.4 1.1 -1.3 3.8 -2 6 -0.6 2.2 -2.2 6.3 -3.5 9 -1.2 2.8 -2.9 6.4 -3.6 8.1 l-1.4 3.2 -7.1 -7.7z"/>
  <path d="M628.5 515.4 c1 -2.4 3 -13.4 4.4 -24.9 2 -15.1 -0.5 -27.8 -8.5 -43.7 -1.3 -2.7 -2.4 -5.4 -2.4 -6.1 0 -0.7 -0.8 -2.2 -1.8 -3.3 -1 -1 -3.1 -3.7 -4.7 -5.9 -5.4 -7.3 -14.8 -17.5 -16.1 -17.5 -0.7 0 -2.9 -1.3 -4.7 -3 -1.9 -1.6 -3.9 -3 -4.4 -3 -0.6 0 -2 -0.9 -3.3 -2 -1.3 -1.1 -2.9 -2 -3.5 -2 -0.7 0 -1.8 -0.6 -2.4 -1.4 -0.7 -0.8 -2.1 -1.2 -3.1 -0.9 -1.1 0.3 -2 0 -2 -0.6 0 -0.6 -0.8 -1.1 -1.9 -1.1 -1 0 -3.4 -0.7 -5.4 -1.5 -1.9 -0.8 -5.2 -1.6 -7.2 -1.8 -4.1 -0.5 -5.5 -1.8 -18.3 -16.3 -6.6 -7.6 -7.3 -8.9 -4.2 -8.1 1 0.3 2.5 -0.2 3.1 -0.9 0.7 -0.8 1.8 -1.3 2.4 -1 0.7 0.2 2.2 -0.2 3.4 -1 1.4 -1 2.1 -1.1 2.1 -0.3 0 0.7 0.7 0.8 1.8 0.4 0.9 -0.4 2.8 -0.9 4.2 -1.1 5.6 -1 6.5 -1.2 6.5 -1.3 0 -0.2 2.9 -0.4 6.5 -0.6 3.6 -0.1 7.7 -0.5 9.3 -0.8 1.5 -0.2 3 0 3.3 0.5 0.3 0.5 1.2 0.4 2 -0.3 0.9 -0.8 1.4 -0.8 1.4 -0.1 0 0.7 1.5 1 3.6 0.8 1.9 -0.1 3.7 0 3.9 0.3 0.2 0.4 2.3 0.6 4.7 0.5 2.3 -0.1 4.8 0.3 5.4 0.8 0.7 0.5 1.6 0.8 2 0.7 0.5 -0.1 1.1 0 1.4 0.1 0.3 0.1 1.6 0.4 3 0.6 4.7 0.8 6.5 1.1 6.5 1.3 0 0.2 1.1 0.5 2.5 0.7 1.4 0.3 2.7 0.9 2.8 1.4 0.2 0.6 0.8 0.8 1.2 0.5 0.5 -0.3 2.6 0.1 4.7 1 2.1 0.9 3.9 1.6 4.1 1.5 0.3 -0.1 8.1 4.3 12 6.7 3.5 2.2 13.4 10.4 14.8 12.3 0.7 0.8 2.3 2.8 3.7 4.4 1.3 1.5 3.5 4.7 4.7 7 1.3 2.2 3.4 6 4.6 8.4 1.3 2.4 2.4 5.1 2.4 6.1 0 0.9 0.4 2.1 0.9 2.6 1 1.1 1.7 6.3 2.7 18.4 0.6 7.3 -1 27.4 -2.5 32.1 -0.5 1.4 -1.4 4.5 -2.2 7 -1.7 6.2 -4.8 10 -13.2 16.7 -3.9 3.2 -8.4 7.2 -10 9 -1.5 1.7 -4.1 3.5 -5.8 3.8 -1.6 0.4 -4.2 1.8 -5.8 3.1 -1.6 1.3 -4.4 2.7 -6.2 3.1 -2.9 0.6 -3.2 0.4 -2.4 -1.3z"/>
 </g>
</svg>